# xmcd
#
# Track frame offsets:
#	150
#	22658
#	42896
#	65809
#	84004
#	100817
#	125100
#	139098
#	158617
#	175987
#
# Disc length: 2596 seconds
#
# Revision: 1
# Processed by: cddbd v1.5.2PL0 Copyright (c) Steve Scherf et al.
# Submitted via: EZCDAudioConverter 8.0.2.1
#
DISCID=780a220a
DTITLE=Thùy Vân - Nô Lệ Một Cuộc Tình
DYEAR=2006
DGENRE=Contemporary Pop
TTITLE0=Thùy Vân - Nhớ anh
TTITLE1=Thùy Vân - Ngất trên đôi môi
TTITLE2=Thùy Vân - Nô Lệ Một Cuộc Tình
TTITLE3=Thùy Vân, Tuấn Hùng - Đừng trách gì nhau
TTITLE4=Thùy Vân - Cõi tình
TTITLE5=Thùy Vân - Tình 2000
TTITLE6=Thùy Vân - Ý ô à
TTITLE7=Thùy Vân - Về đâu anh hỡi
TTITLE8=Thùy Vân - Men tình
TTITLE9=Thùy Vân - Xin hát cho đời
EXTD=
EXTT0=
EXTT1=
EXTT2=
EXTT3=
EXTT4=
EXTT5=
EXTT6=
EXTT7=
EXTT8=
EXTT9=
PLAYORDER=
